<svg width="564" height="564" viewBox="0 0 564 564" fill="none" xmlns="http://www.w3.org/2000/svg">
    <rect x="54.1617" y="0.643097" width="512" height="512" rx="32" transform="rotate(6 54.1617 0.643097)"
          fill="#FEFBFF"/>
    <rect x="54.1617" y="0.643097" width="512" height="512" rx="32" transform="rotate(6 54.1617 0.643097)"
          fill="#005AC1" fill-opacity="0.11"/>
    <path
        d="M90.8321 294.759C89.5591 294.626 88.5808 294.137 87.8973 293.293C87.2774 292.455 87.0377 291.368 87.1782 290.032L93.47 230.169C93.6239 228.705 94.091 227.628 94.8714 226.938C95.6519 226.248 96.6149 225.963 97.7606 226.083C98.8426 226.197 99.65 226.475 100.183 226.917C100.715 227.359 101.282 228.094 101.881 229.123L136.723 287.034L134.336 286.783L139.795 234.845C139.942 233.445 140.403 232.431 141.176 231.805C142.02 231.121 143.111 230.85 144.447 230.99C145.784 231.131 146.762 231.62 147.382 232.457C148.009 233.231 148.248 234.318 148.101 235.718L141.789 295.771C141.649 297.108 141.188 298.121 140.408 298.812C139.691 299.509 138.792 299.8 137.71 299.686C136.691 299.579 135.856 299.266 135.202 298.747C134.606 298.298 134.008 297.56 133.408 296.531L98.662 238.63L100.858 238.861L95.389 290.895C95.2485 292.231 94.7881 293.245 94.0076 293.935C93.2272 294.625 92.1687 294.9 90.8321 294.759ZM176.24 303.929C171.657 303.447 167.783 302.043 164.616 299.715C161.45 297.387 159.135 294.313 157.671 290.491C156.206 286.669 155.731 282.307 156.247 277.406C156.635 273.714 157.492 270.458 158.818 267.637C160.214 264.759 162.009 262.374 164.203 260.481C166.397 258.588 168.919 257.244 171.77 256.45C174.691 255.599 177.87 255.353 181.307 255.715C185.89 256.196 189.764 257.601 192.93 259.929C196.096 262.256 198.412 265.331 199.876 269.153C201.347 272.912 201.825 277.241 201.31 282.142C200.922 285.834 200.03 289.119 198.634 291.997C197.301 294.881 195.537 297.27 193.344 299.163C191.15 301.056 188.592 302.428 185.671 303.279C182.821 304.074 179.677 304.29 176.24 303.929ZM176.962 297.055C179.763 297.349 182.252 296.935 184.429 295.813C186.67 294.697 188.465 292.923 189.815 290.49C191.228 288.065 192.132 284.975 192.527 281.219C193.115 275.618 192.322 271.223 190.148 268.034C187.973 264.846 184.786 263.03 180.585 262.589C177.848 262.301 175.359 262.715 173.118 263.831C170.947 264.89 169.155 266.632 167.742 269.058C166.329 271.483 165.425 274.574 165.03 278.329C164.441 283.93 165.231 288.357 167.399 291.61C169.637 294.805 172.825 296.62 176.962 297.055ZM227.808 309.349C223.735 308.921 220.239 307.588 217.321 305.351C214.473 303.057 212.381 300.005 211.043 296.197C209.713 292.324 209.305 287.938 209.82 283.037C210.342 278.072 211.618 273.895 213.647 270.504C215.747 267.057 218.425 264.539 221.681 262.951C225.007 261.305 228.739 260.7 232.876 261.135C237.013 261.57 240.467 262.994 243.238 265.409C246.015 267.761 247.733 270.708 248.39 274.252L247.34 274.142L250.24 246.55C250.393 245.086 250.857 244.041 251.631 243.414C252.475 242.731 253.597 242.462 254.997 242.61C256.398 242.757 257.44 243.252 258.123 244.097C258.813 244.877 259.082 245.999 258.928 247.463L252.646 307.23C252.492 308.694 251.993 309.768 251.149 310.451C250.305 311.135 249.183 311.403 247.783 311.256C246.446 311.115 245.436 310.623 244.752 309.779C244.069 308.935 243.804 307.781 243.958 306.317L244.871 297.629L245.741 299.457C244.411 302.921 242.109 305.543 238.833 307.322C235.62 309.108 231.946 309.784 227.808 309.349ZM230.536 302.686C233.336 302.98 235.825 302.566 238.003 301.443C240.243 300.328 242.039 298.554 243.388 296.121C244.802 293.696 245.706 290.605 246.1 286.85C246.689 281.249 245.896 276.854 243.722 273.665C241.547 270.476 238.359 268.661 234.158 268.22C231.421 267.932 228.933 268.346 226.692 269.462C224.521 270.521 222.729 272.263 221.316 274.689C219.903 277.114 218.999 280.205 218.604 283.96C218.015 289.561 218.805 293.988 220.973 297.24C223.211 300.436 226.399 302.251 230.536 302.686ZM287.716 315.646C282.688 315.117 278.46 313.708 275.033 311.417C271.676 309.069 269.198 306.009 267.599 302.238C266.008 298.402 265.469 294.034 265.984 289.133C266.493 284.296 267.892 280.163 270.183 276.736C272.538 273.315 275.509 270.764 279.096 269.082C282.747 267.406 286.769 266.799 291.161 267.261C294.279 267.589 297.023 268.424 299.392 269.767C301.831 271.053 303.838 272.776 305.412 274.937C306.987 277.097 308.07 279.656 308.66 282.614C309.32 285.515 309.463 288.748 309.088 292.312C308.981 293.33 308.579 294.093 307.883 294.598C307.256 295.047 306.37 295.212 305.225 295.091L272.572 291.659L273.154 286.122L303.611 289.323L301.847 290.489C302.195 287.179 301.98 284.325 301.203 281.927C300.495 279.471 299.251 277.539 297.468 276.129C295.749 274.725 293.49 273.876 290.689 273.582C287.634 273.261 284.948 273.719 282.63 274.955C280.318 276.128 278.453 277.959 277.033 280.448C275.619 282.874 274.736 285.773 274.381 289.147L274.321 289.72C273.719 295.448 274.632 299.92 277.061 303.136C279.491 306.351 283.283 308.23 288.439 308.772C290.475 308.986 292.571 308.949 294.725 308.66C296.942 308.378 299.108 307.673 301.222 306.544C302.236 306.071 303.123 305.907 303.88 306.051C304.707 306.138 305.349 306.463 305.804 307.025C306.267 307.524 306.525 308.131 306.578 308.844C306.639 309.494 306.47 310.184 306.071 310.914C305.673 311.645 304.998 312.25 304.046 312.729C301.792 313.972 299.158 314.853 296.143 315.373C293.198 315.836 290.389 315.927 287.716 315.646Z"
        fill="#1B1B1F"/>
    <path
        d="M322.655 319.125C321.382 318.991 320.404 318.502 319.72 317.658C319.1 316.821 318.861 315.734 319.001 314.397L325.293 254.535C325.447 253.071 325.914 251.994 326.694 251.304C327.475 250.613 328.438 250.329 329.584 250.449C330.666 250.563 331.473 250.841 332.006 251.283C332.538 251.725 333.105 252.46 333.705 253.488L368.546 311.4L366.159 311.149L371.618 259.211C371.765 257.81 372.226 256.797 372.999 256.171C373.843 255.487 374.934 255.215 376.27 255.356C377.607 255.496 378.585 255.985 379.205 256.823C379.832 257.596 380.071 258.684 379.924 260.084L373.612 320.137C373.472 321.474 373.012 322.487 372.231 323.177C371.514 323.874 370.615 324.166 369.533 324.052C368.514 323.945 367.679 323.632 367.025 323.113C366.429 322.664 365.831 321.925 365.231 320.897L330.485 262.996L332.681 263.227L327.212 315.26C327.072 316.597 326.611 317.61 325.831 318.3C325.05 318.991 323.992 319.265 322.655 319.125ZM403.098 327.773C399.916 327.438 397.086 326.498 394.611 324.95C392.198 323.41 390.374 321.48 389.138 319.162C387.965 316.851 387.519 314.359 387.8 311.686C388.161 308.249 389.305 305.634 391.231 303.841C393.156 302.049 396.2 300.953 400.36 300.554C404.527 300.091 410.048 300.22 416.922 300.943L421.41 301.415L420.828 306.952L416.531 306.501C411.63 305.985 407.724 305.8 404.813 305.945C401.966 306.096 399.909 306.684 398.643 307.709C397.383 308.671 396.65 310.138 396.443 312.111C396.182 314.594 396.827 316.721 398.378 318.493C399.993 320.271 402.328 321.321 405.383 321.642C407.802 321.896 409.995 321.548 411.961 320.596C413.934 319.581 415.565 318.143 416.854 316.284C418.15 314.361 418.936 312.095 419.21 309.485L420.364 298.505C420.759 294.75 420.279 291.965 418.925 290.149C417.579 288.27 415.091 287.14 411.463 286.759C409.363 286.538 407.168 286.597 404.88 286.936C402.593 287.274 400.176 287.921 397.63 288.876C396.628 289.221 395.784 289.294 395.097 289.093C394.417 288.828 393.885 288.386 393.499 287.766C393.184 287.09 393.032 286.398 393.042 285.691C393.122 284.927 393.358 284.212 393.75 283.545C394.205 282.885 394.895 282.443 395.82 282.219C398.768 281.113 401.64 280.417 404.437 280.132C407.305 279.79 409.948 279.746 412.366 280C416.504 280.435 419.839 281.461 422.371 283.079C424.911 284.633 426.705 286.848 427.754 289.726C428.81 292.54 429.117 296.047 428.675 300.248L426.026 325.453C425.872 326.917 425.405 327.994 424.625 328.684C423.844 329.374 422.786 329.649 421.449 329.509C420.176 329.375 419.198 328.886 418.514 328.042C417.895 327.204 417.662 326.054 417.815 324.59L418.528 317.811L419.387 317.902C418.63 320.203 417.462 322.139 415.881 323.711C414.3 325.282 412.409 326.435 410.208 327.169C408.078 327.846 405.708 328.047 403.098 327.773ZM455.395 333.27C452.531 332.969 449.669 332.346 446.808 331.402C444.017 330.401 441.436 328.939 439.064 327.016C438.41 326.497 437.958 325.903 437.707 325.233C437.526 324.506 437.5 323.827 437.631 323.198C437.832 322.511 438.182 321.936 438.681 321.474C439.18 321.011 439.751 320.782 440.394 320.785C441.108 320.731 441.823 320.967 442.54 321.493C444.875 323.155 447.158 324.392 449.389 325.206C451.684 326.026 453.977 326.557 456.269 326.797C459.77 327.165 462.478 326.806 464.394 325.721C466.31 324.635 467.378 323.042 467.599 320.942C467.786 319.159 467.325 317.727 466.216 316.646C465.178 315.507 463.444 314.552 461.015 313.782L452.327 311.035C448.474 309.729 445.637 307.951 443.814 305.7C442.061 303.392 441.356 300.615 441.697 297.369C441.998 294.505 443.023 292.103 444.771 290.163C446.59 288.166 448.96 286.742 451.881 285.891C454.802 285.039 458.076 284.804 461.704 285.186C464.505 285.48 467.106 286.14 469.508 287.164C471.981 288.132 474.158 289.455 476.041 291.133C476.758 291.659 477.175 292.282 477.293 293.002C477.48 293.665 477.442 294.337 477.177 295.017C476.983 295.64 476.64 296.151 476.147 296.55C475.655 296.948 475.052 297.175 474.339 297.228C473.632 297.218 472.888 296.947 472.107 296.415C470.395 294.948 468.58 293.856 466.66 293.139C464.811 292.366 462.931 291.879 461.022 291.678C457.585 291.317 454.905 291.711 452.982 292.86C451.123 294.016 450.08 295.676 449.853 297.84C449.679 299.495 450.044 300.917 450.949 302.106C451.917 303.302 453.52 304.275 455.758 305.025L464.446 307.772C468.49 309.098 471.458 310.858 473.351 313.052C475.251 315.182 476.027 317.902 475.679 321.212C475.224 325.54 473.144 328.796 469.44 330.981C465.805 333.109 461.124 333.872 455.395 333.27Z"
        fill="#005AC1"/>
</svg>
