<svg width="68" height="22" viewBox="0 0 68 22" fill="none" xmlns="http://www.w3.org/2000/svg">
    <path
        d="M2.096 16.112C1.85067 16.112 1.65867 16.0427 1.52 15.904C1.38133 15.7653 1.312 15.568 1.312 15.312V5.44C1.312 5.17333 1.376 4.97067 1.504 4.832C1.64267 4.68267 1.824 4.608 2.048 4.608C2.24 4.608 2.384 4.64533 2.48 4.72C2.58667 4.784 2.70933 4.90667 2.848 5.088L9.44 13.776H9.04V5.392C9.04 5.14667 9.104 4.95467 9.232 4.816C9.37067 4.67733 9.56267 4.608 9.808 4.608C10.064 4.608 10.256 4.67733 10.384 4.816C10.512 4.95467 10.576 5.14667 10.576 5.392V15.328C10.576 15.5733 10.512 15.7653 10.384 15.904C10.2667 16.0427 10.1067 16.112 9.904 16.112C9.712 16.112 9.552 16.0747 9.424 16C9.30667 15.9253 9.17867 15.7973 9.04 15.616L2.48 6.944H2.848V15.312C2.848 15.568 2.784 15.7653 2.656 15.904C2.528 16.0427 2.34133 16.112 2.096 16.112ZM16.4186 16.144C15.6293 16.144 14.9466 15.9787 14.3706 15.648C13.8053 15.3173 13.3626 14.848 13.0426 14.24C12.7226 13.632 12.5626 12.9173 12.5626 12.096C12.5626 11.4667 12.6533 10.9067 12.8346 10.416C13.016 9.92533 13.272 9.504 13.6026 9.152C13.944 8.78933 14.3493 8.51733 14.8186 8.336C15.2986 8.144 15.832 8.048 16.4186 8.048C17.1973 8.048 17.8693 8.21333 18.4346 8.544C19.0106 8.87467 19.4586 9.344 19.7786 9.952C20.0986 10.5493 20.2586 11.264 20.2586 12.096C20.2586 12.7147 20.168 13.2747 19.9866 13.776C19.8053 14.2773 19.544 14.704 19.2026 15.056C18.872 15.408 18.4666 15.68 17.9866 15.872C17.5173 16.0533 16.9946 16.144 16.4186 16.144ZM16.4186 14.896C16.856 14.896 17.24 14.7893 17.5706 14.576C17.9013 14.3627 18.1573 14.048 18.3386 13.632C18.5306 13.216 18.6266 12.704 18.6266 12.096C18.6266 11.1787 18.424 10.4853 18.0186 10.016C17.6133 9.54667 17.08 9.312 16.4186 9.312C15.9706 9.312 15.5813 9.41867 15.2506 9.632C14.92 9.83467 14.6586 10.144 14.4666 10.56C14.2853 10.976 14.1946 11.488 14.1946 12.096C14.1946 13.0027 14.3973 13.696 14.8026 14.176C15.208 14.656 15.7466 14.896 16.4186 14.896ZM25.0495 16.144C24.3668 16.144 23.7642 15.984 23.2415 15.664C22.7295 15.3333 22.3295 14.864 22.0415 14.256C21.7535 13.6373 21.6095 12.9173 21.6095 12.096C21.6095 11.2533 21.7535 10.5333 22.0415 9.936C22.3295 9.33867 22.7295 8.87467 23.2415 8.544C23.7642 8.21333 24.3668 8.048 25.0495 8.048C25.7322 8.048 26.3188 8.21867 26.8095 8.56C27.3108 8.89067 27.6468 9.33867 27.8175 9.904H27.6415V5.424C27.6415 5.15733 27.7108 4.95467 27.8495 4.816C27.9882 4.67733 28.1855 4.608 28.4415 4.608C28.6975 4.608 28.8948 4.67733 29.0335 4.816C29.1828 4.95467 29.2575 5.15733 29.2575 5.424V15.296C29.2575 15.552 29.1882 15.7547 29.0495 15.904C28.9108 16.0427 28.7135 16.112 28.4575 16.112C28.2015 16.112 28.0042 16.0427 27.8655 15.904C27.7268 15.7547 27.6575 15.552 27.6575 15.296V13.888L27.8335 14.24C27.6628 14.816 27.3268 15.28 26.8255 15.632C26.3348 15.9733 25.7428 16.144 25.0495 16.144ZM25.4655 14.896C25.9028 14.896 26.2868 14.7893 26.6175 14.576C26.9482 14.3627 27.2042 14.048 27.3855 13.632C27.5775 13.216 27.6735 12.704 27.6735 12.096C27.6735 11.1787 27.4708 10.4853 27.0655 10.016C26.6602 9.54667 26.1268 9.312 25.4655 9.312C25.0175 9.312 24.6282 9.41867 24.2975 9.632C23.9668 9.83467 23.7055 10.144 23.5135 10.56C23.3322 10.976 23.2415 11.488 23.2415 12.096C23.2415 13.0027 23.4442 13.696 23.8495 14.176C24.2548 14.656 24.7935 14.896 25.4655 14.896ZM35.1906 16.144C34.3373 16.144 33.6013 15.984 32.9826 15.664C32.3746 15.3333 31.9 14.8693 31.5586 14.272C31.228 13.664 31.0626 12.944 31.0626 12.112C31.0626 11.3013 31.228 10.592 31.5586 9.984C31.8893 9.376 32.3426 8.90133 32.9186 8.56C33.4946 8.21867 34.1506 8.048 34.8866 8.048C35.4306 8.048 35.916 8.13867 36.3426 8.32C36.7693 8.49067 37.132 8.74667 37.4306 9.088C37.74 9.41867 37.9693 9.824 38.1186 10.304C38.2786 10.784 38.3586 11.3227 38.3586 11.92C38.3586 12.1013 38.3053 12.24 38.1986 12.336C38.092 12.4213 37.932 12.464 37.7186 12.464H32.3426V11.472H37.2706L36.9986 11.696C36.9986 11.1627 36.9186 10.7093 36.7586 10.336C36.6093 9.96267 36.38 9.68 36.0706 9.488C35.772 9.28533 35.3986 9.184 34.9506 9.184C34.4493 9.184 34.0226 9.30133 33.6706 9.536C33.3293 9.77067 33.068 10.096 32.8866 10.512C32.7053 10.928 32.6146 11.4133 32.6146 11.968V12.064C32.6146 13.0027 32.8333 13.712 33.2706 14.192C33.7186 14.6613 34.364 14.896 35.2066 14.896C35.5266 14.896 35.8626 14.8533 36.2146 14.768C36.5773 14.6827 36.9186 14.5387 37.2386 14.336C37.42 14.2293 37.58 14.1813 37.7186 14.192C37.868 14.2027 37.9853 14.2507 38.0706 14.336C38.1666 14.4213 38.2253 14.528 38.2466 14.656C38.268 14.784 38.2466 14.9173 38.1826 15.056C38.1186 15.184 38.0066 15.3013 37.8466 15.408C37.484 15.6533 37.0626 15.84 36.5826 15.968C36.1026 16.0853 35.6386 16.144 35.1906 16.144ZM41.0804 16.112C40.835 16.112 40.643 16.0427 40.5044 15.904C40.3657 15.7653 40.2964 15.568 40.2964 15.312V5.44C40.2964 5.17333 40.3604 4.97067 40.4884 4.832C40.627 4.68267 40.8084 4.608 41.0324 4.608C41.2244 4.608 41.3684 4.64533 41.4644 4.72C41.571 4.784 41.6937 4.90667 41.8324 5.088L48.4244 13.776H48.0244V5.392C48.0244 5.14667 48.0884 4.95467 48.2164 4.816C48.355 4.67733 48.547 4.608 48.7924 4.608C49.0484 4.608 49.2404 4.67733 49.3684 4.816C49.4964 4.95467 49.5604 5.14667 49.5604 5.392V15.328C49.5604 15.5733 49.4964 15.7653 49.3684 15.904C49.251 16.0427 49.091 16.112 48.8884 16.112C48.6964 16.112 48.5364 16.0747 48.4084 16C48.291 15.9253 48.163 15.7973 48.0244 15.616L41.4644 6.944H41.8324V15.312C41.8324 15.568 41.7684 15.7653 41.6404 15.904C41.5124 16.0427 41.3257 16.112 41.0804 16.112ZM54.507 16.144C53.963 16.144 53.4723 16.0373 53.035 15.824C52.6083 15.6107 52.2723 15.3227 52.027 14.96C51.7817 14.5973 51.659 14.1867 51.659 13.728C51.659 13.152 51.803 12.6987 52.091 12.368C52.3897 12.0267 52.875 11.7867 53.547 11.648C54.2297 11.4987 55.147 11.424 56.299 11.424H57.051V12.416H56.315C55.547 12.416 54.939 12.4533 54.491 12.528C54.043 12.6027 53.723 12.7307 53.531 12.912C53.3497 13.0827 53.259 13.3227 53.259 13.632C53.259 14.0373 53.3977 14.368 53.675 14.624C53.9523 14.8693 54.3363 14.992 54.827 14.992C55.2217 14.992 55.5683 14.9013 55.867 14.72C56.1657 14.528 56.4003 14.272 56.571 13.952C56.7523 13.632 56.843 13.264 56.843 12.848V11.008C56.843 10.4 56.715 9.96267 56.459 9.696C56.203 9.42933 55.7817 9.296 55.195 9.296C54.8537 9.296 54.4963 9.33867 54.123 9.424C53.7603 9.50933 53.3817 9.65333 52.987 9.856C52.8057 9.94133 52.651 9.968 52.523 9.936C52.395 9.904 52.2937 9.83467 52.219 9.728C52.1443 9.61067 52.1017 9.488 52.091 9.36C52.091 9.22133 52.123 9.088 52.187 8.96C52.2617 8.832 52.3843 8.736 52.555 8.672C53.0243 8.448 53.4883 8.288 53.947 8.192C54.4057 8.096 54.8377 8.048 55.243 8.048C55.9577 8.048 56.5443 8.16 57.003 8.384C57.4723 8.608 57.819 8.94933 58.043 9.408C58.267 9.86667 58.379 10.4587 58.379 11.184V15.296C58.379 15.552 58.315 15.7547 58.187 15.904C58.059 16.0427 57.8723 16.112 57.627 16.112C57.3923 16.112 57.2057 16.0427 57.067 15.904C56.9283 15.7547 56.859 15.552 56.859 15.296V14.256H57.003C56.9177 14.6507 56.7577 14.992 56.523 15.28C56.299 15.5573 56.0163 15.7707 55.675 15.92C55.3337 16.0693 54.9443 16.144 54.507 16.144ZM63.3408 16.144C62.8714 16.144 62.3861 16.0907 61.8848 15.984C61.3941 15.8773 60.9408 15.696 60.5247 15.44C60.3861 15.344 60.2901 15.2373 60.2368 15.12C60.1834 15.0027 60.1621 14.8853 60.1728 14.768C60.1941 14.64 60.2421 14.5333 60.3168 14.448C60.4021 14.352 60.5034 14.2933 60.6208 14.272C60.7488 14.2507 60.8821 14.2773 61.0208 14.352C61.4368 14.5867 61.8368 14.752 62.2208 14.848C62.6048 14.9333 62.9834 14.976 63.3568 14.976C63.9221 14.976 64.3488 14.8747 64.6368 14.672C64.9248 14.4693 65.0688 14.1973 65.0688 13.856C65.0688 13.5787 64.9728 13.3653 64.7808 13.216C64.5888 13.056 64.3008 12.9333 63.9168 12.848L62.3968 12.544C61.7354 12.4053 61.2341 12.16 60.8928 11.808C60.5514 11.456 60.3808 11.008 60.3808 10.464C60.3808 9.97333 60.5141 9.54667 60.7808 9.184C61.0474 8.82133 61.4208 8.544 61.9008 8.352C62.3808 8.14933 62.9354 8.048 63.5648 8.048C64.0341 8.048 64.4768 8.10667 64.8928 8.224C65.3088 8.34133 65.6928 8.51733 66.0448 8.752C66.1834 8.82667 66.2741 8.928 66.3168 9.056C66.3594 9.17333 66.3648 9.29067 66.3328 9.408C66.3114 9.52533 66.2581 9.632 66.1728 9.728C66.0874 9.81333 65.9808 9.86667 65.8528 9.888C65.7354 9.89867 65.6021 9.86667 65.4528 9.792C65.1328 9.58933 64.8128 9.44533 64.4928 9.36C64.1834 9.27467 63.8741 9.232 63.5648 9.232C62.9994 9.232 62.5728 9.33867 62.2848 9.552C62.0074 9.75467 61.8688 10.032 61.8688 10.384C61.8688 10.6507 61.9541 10.8693 62.1248 11.04C62.2954 11.2107 62.5621 11.3333 62.9248 11.408L64.4448 11.712C65.1381 11.8507 65.6608 12.0853 66.0128 12.416C66.3754 12.7467 66.5568 13.1947 66.5568 13.76C66.5568 14.496 66.2634 15.0773 65.6768 15.504C65.0901 15.9307 64.3114 16.144 63.3408 16.144Z"
        fill="url(#paint0_linear_21_2)"/>
    <defs>
        <linearGradient id="paint0_linear_21_2" x1="68" y1="22" x2="-0.566355" y2="1.93539"
                        gradientUnits="userSpaceOnUse">
            <stop stop-color="#625EB1"/>
            <stop offset="0.526042" stop-color="#1D8FE1"/>
            <stop offset="1" stop-color="#22E1FF"/>
        </linearGradient>
    </defs>
</svg>
